# xmcd
#
# Track frame offsets: 
#        150
#        20585
#        41305
#        61413
#        79071
#        96140
#        116795
#        134754
#        150358
#
# Disc length: 2321 seconds
#
# Revision: 0
# Processed by: cddbd v1.5.2PL0 Copyright (c) Steve Scherf et al.
# Submitted via: ExactAudioCopy v0.99pb4
#
DISCID=6f090f09
DTITLE=Etta James - Red Hot And Live
DYEAR=2003
DGENRE=Blues
TTITLE0=Respect Yourself
TTITLE1=I'd Rather Go Blind
TTITLE2=Get Up, Get Down
TTITLE3=Dust Your Broom
TTITLE4=Out On The Streets Again
TTITLE5=Drown In My Own Tears
TTITLE6=Can't Turn You Loose
TTITLE7=Rock Me Baby
TTITLE8=Stormy Monday
EXTD=
EXTT0=
EXTT1=
EXTT2=
EXTT3=
EXTT4=
EXTT5=
EXTT6=
EXTT7=
EXTT8=
PLAYORDER=
